<svg xmlns="http://www.w3.org/2000/svg" viewBox="0 0 32 32" width="32" height="32">
  <defs>
    <linearGradient id="toothGradient" x1="0%" y1="0%" x2="100%" y2="100%">
      <stop offset="0%" style="stop-color:#A7F3D0;stop-opacity:1" />
      <stop offset="50%" style="stop-color:#5EEAD4;stop-opacity:1" />
      <stop offset="100%" style="stop-color:#2DD4BF;stop-opacity:1" />
    </linearGradient>
  </defs>
  
  <!-- Tooth outline -->
  <path d="M16 4 C12 4 10 6 10 10 C10 12 10.5 14 11.5 16 C12.5 18 14 20 16 22 C18 20 19.5 18 20.5 16 C21.5 14 22 12 22 10 C22 6 20 4 16 4 Z" 
        fill="url(#toothGradient)" 
        stroke="#0F766E" 
        stroke-width="1"/>
  
  <!-- Left figure -->
  <circle cx="13" cy="11" r="2" fill="none" stroke="#0F766E" stroke-width="0.5"/>
  <path d="M13 13 L13 16 L12 18 L13 19 L14 18 L13 16" 
        fill="none" 
        stroke="#0F766E" 
        stroke-width="0.5" 
        stroke-linecap="round" 
        stroke-linejoin="round"/>
  
  <!-- Right figure -->
  <circle cx="19" cy="11" r="2" fill="none" stroke="#0F766E" stroke-width="0.5"/>
  <path d="M19 13 L19 16 L20 18 L19 19 L18 18 L19 16" 
        fill="none" 
        stroke="#0F766E" 
        stroke-width="0.5" 
        stroke-linecap="round" 
        stroke-linejoin="round"/>
  
  <!-- Handshake -->
  <path d="M14 15 C15 14 17 14 18 15 C18.5 15.5 18.5 16.5 18 17 C17 18 15 18 14 17 C13.5 16.5 13.5 15.5 14 15" 
        fill="none" 
        stroke="#0F766E" 
        stroke-width="0.5" 
        stroke-linecap="round"/>
</svg>
